<svg xmlns="http://www.w3.org/2000/svg" version="1.1" xmlns:xlink="http://www.w3.org/1999/xlink" xmlns:svgjs="http://svgjs.dev/svgjs" width="1500" height="1500" viewBox="0 0 1500 1500"><rect width="1500" height="1500" fill="#ffffff"></rect><g transform="matrix(0.6666666666666666,0,0,0.6666666666666666,248.44237538940803,189.33333333333348)"><svg viewBox="0 0 321 360" data-background-color="#ffffff" preserveAspectRatio="xMidYMid meet" height="1682" width="1500" xmlns="http://www.w3.org/2000/svg" xmlns:xlink="http://www.w3.org/1999/xlink"><g id="tight-bounds" transform="matrix(1,0,0,1,0.5000025000000505,0)"><svg viewBox="0 0 320 360" height="360" width="320"><g><svg></svg></g><g><svg viewBox="0 0 320 360" height="360" width="320"><g><path transform="translate(-19.44751,3.1739) scale(3.53591,3.53591)" d="M67.6 10.7c0.2 0 1.8 0.8 2.7 1.1-0.3 0.1-1-0.2-1.8-0.5 0.2 0 0.6 0.1 1 0.3-0.2-0.2-1.7-0.7-1.9-0.9M52.7 7.6c0.3-0.1 3.8 0.4 5.4 0.5 0.1-0.1-0.2-0.1-0.6-0.2 0.5-0.1 1.5 0.2 2.2 0.3-2.1 0.1-4.4-0.5-6.4-0.3-0.7 0-0.2-0.2-0.6-0.3M49.8 7.6c1.8 0 3.2 0 0.6 0.2-0.3-0.1-0.7-0.1-0.6-0.2M78.1 15.9c0.2 0 1 0.9 1.4 1.2-0.1 0.1-0.9-0.7-1.3-1 0.1 0.1 0 0-0.1-0.2M76.1 14.6c-0.8-0.7-1.1-0.7-1.2-1.1 0.7 0.4 1.2 0.8 1.2 1.1M63.2 8.3c0.1-0.1 0.3 0.1 0.8 0.2-0.6-0.1-0.5 0-0.3 0.2-0.7-0.1-0.9-0.2-0.7-0.4 0.4 0.2 0.5 0.1 0.2 0M34.8 9.5c0-0.1 0.4-0.3 0.7-0.4-0.3 0.2-0.2 0.3 0.3 0.1 0 0.1-0.6 0.3-1 0.5 0.2-0.1 0.4-0.4 0-0.2M65.2 7.3c-0.3 0.1-1.4-0.5-2.5-0.7-0.6-0.2 2.4 0.5 2.5 0.7M6.2 56.7c0.6 2.5 0.2 2.4 0 0M6.3 41.7c0.1-0.4 0.2-1.5 0.3-1.4-0.3 2.4-0.8 3.5-0.9 5.3 0.3-1.6-0.1 0.9-0.2 1.5 0.1 0.8 0.1-0.5 0.3-0.3 0.2 0.3-0.4 4.5-0.2 2.2-0.2 2.1 0 4.4 0.4 5-0.5 3.2 2 10.4 2.5 11.9 0.1 0.1 0-0.5 0.2-0.1 0.2 1.3 1.1 2.2 1.4 3.6 0.3 0.4 1.5 2.6 1.7 3.1 0.4 0.8 0.6 0.7 1 1.5 1.2 2.3 3.1 4.5 4.9 6.6 5.8 6.8 14.7 12.4 24.6 14.4 9.9 2.1 20.3 0.6 28.4-3.3 0.5-0.3 0.4-0.4 1-0.6 2.8-0.9 6.2-3.8 8.1-4.9 0.9-1 3.3-2.7 3.6-3.7 1.7-1.4 3.4-3.7 4.3-5.2 0.5-0.8 0.9-0.8 1.1-1.3-0.1 0 1.6-2.1 2.1-3.3-0.2 0-0.5 0.6-0.5 0 3.6-6.9 5.6-16.2 4.5-22.6 0.2 7.9-1.8 16.7-5.6 22.3-1.7 3.6-5.2 7.5-8.4 10.3-0.5 0.5-1 1.1-1.6 1.5-1.9 1.6-4 2.9-6.2 4.1-5.2 2.9-11 5.4-17.8 5.5 11.7-1 22.2-6.9 28-14.1-4.4 4.3-6.3 6-11.2 8.5-0.4 0.7-3.7 2.1-5.9 2.7 1.3-0.6 4-1.6 4.9-2.4-7.3 3.5-15.4 5.5-23 4.4 2.9 0 7 0.1 10.9-0.6 0.6-0.2 0.9-0.4 1.6-0.5 7.6-1.7 14.9-5.4 20.1-10.6-3 2.7-7.5 5.9-10.4 6.9 2.7-1.5 7.6-4.4 9.2-6.6-3.2 3.2-9.2 6.4-13 7.8-0.6 0.1 0.4-0.4-0.6 0-1.2 0.3-0.7 0.3-1 0.5-4.6 1.3-9.9 2.4-14.3 2-0.8-0.1-1.1-0.3-1.8-0.3-0.8-0.1-1.5-0.1-2.4-0.1-3.5-0.4-7.3-1.8-10.1-3-1.5-0.7-3-1.2-4.5-2.1-1.2-0.7-2.2-1.5-3.2-2.3-3.8-2.8-7-5.6-10-9.6-5.4-7.5-8.2-16.9-7.8-26.2 0.4-9.3 4.1-18.4 10-25.1-0.3 0.3 0.4-0.7 1-1.3 0 0.2-0.1 0.5 0.6-0.2 0.6-0.7-0.2-0.2 0.1-0.6 6.2-6.8 17-12.3 28.1-12.5 0.4-0.3 1.1-0.7 1.9-0.5 0 0.1-0.5 0.1-0.5 0.1 1.1-0.1 2.1-0.1 2.6 0.1 0.1-0.1-0.4-0.2 0-0.2 0.7 0.2 0.9 0 1.3 0.2-0.3 0-0.6 0-0.8 0.1 2.5 0 4.1 0.6 6.6 0.8-1.3-0.3-1.6-0.3-2.6-0.6 1.1 0.2 1.6 0.4 2.1 0.3-0.2 0-0.1-0.3 0.1-0.2 2 0.5 2.2 0.7 4.3 1.4 0.2-0.2-0.9-0.3-1.2-0.6 2 0.7 3.8 1.2 5 2-0.4-0.3-1.6-0.7-2.5-1.1-0.1 0.1 0.3 0.2 0.4 0.4-1-0.5-2.4-1-3.8-1.2 1.2 0.3 2 0.7 2.5 0.9-1.1-0.2-2.5-0.9-4.1-1.2 2.6 0.8 7.5 2.6 10.5 4.2-1.1-0.7-2.4-1.2-3.1-1.6 0.6 0.1 1.3 0.5 1.3 0.3 0.7 0.3 1.6 1 2.1 1.1-0.9-0.6-2.7-1.5-3.3-1.8 7.5 3.4 14.2 9.1 18.5 16.4 0.4 0.7 1 2.3 1.5 2.5-0.1-0.5-0.5-0.8-0.9-1.6 0.2 0 0.2-0.3 0-0.6-0.4-0.5 0 0.4-0.4-0.1-1.8-3.3-4-6.2-7.4-9.4 1.9 1.8 0.5 0.5 0.1-0.1 2.6 2.3 5.6 6.2 6.9 8.2-0.2-0.3-0.3-0.5-0.2-0.5 2.4 4.1 3.9 7.8 5.4 13.1 0.1 0.1 0-0.4 0.2-0.1 1 4.2 1.3 7.7 1.2 10.9 0.8-5.4-1-13.8-4.2-20.4-0.4-0.8-0.4-0.2-0.8-1.1 0-0.3-0.3-0.9-0.5-1.3-4-6.6-8.9-11.3-14.7-15 0.4 0.2 1.2 0.8 1.2 0.7-10.8-7.1-23.3-8.1-33.6-5.9-0.7 0.3-1 0.6-1.8 1 1.5-0.5 2.4-0.6 3.8-0.9 0.3-0.3-1.3 0.1-0.6-0.2 0.1 0.1 1.4-0.2 1.7-0.1 0 0.1-0.4 0.2-0.5 0.3 3.3-0.7 6.7-0.8 9.6-0.6-1.7 0.1-4.8-0.2-5.8 0.3 1-0.1 2.4-0.2 3.3-0.1-1.2 0-3.4 0.1-4.4 0.2-0.1-0.1 1.6-0.3 0.5-0.3-0.5 0.1-1.3 0.1-1.6 0.4-8.6 0.8-17 5.3-22.9 10.6-1.2 1-2.6 2.1-3.5 3.2-2.2 2.5-3.6 5-5.2 7.2 1-2.1 3.2-5.3 5.8-8 2.6-2.7 5.4-5 6.9-6.2 0 0.4 2.4-1.5 3.3-2.1-0.6 0.5 0.4-0.2 0.6-0.1 3.2-1.9 5.8-2.6 8.7-3.7-0.7 0.2-1.3 0.4-1.4 0.3 0.7-0.2 1.1-0.4 1-0.5-2.8 0.8-7.2 2.7-10.7 4.8 6.3-4.3 14.3-6.9 22.2-7 7.9-0.2 15.6 1.8 21.7 5 4.1 1.8 8 5.1 11.1 8.3 0.9 0.8 0.2-0.2 1.5 1.2-0.4-0.2-0.7-0.4-0.2 0.2 0.8 0.9-0.2-0.7 1.1 0.9-0.1 0-0.5-0.5-0.5-0.3 3.5 3.1 6.2 8.7 7.8 12.4-0.4-1.5-1.4-3.6-2.2-5.1 2.4 4.4 3.2 7 4.2 10.9 0.4 0.3-0.2-1.4 0.2-0.6 0.1 0.6 0.2 2.5 0.6 2.8-0.3-1.9-0.8-4.2-1.2-4.6 0.3 0.2-0.5-2.3-1-2.9-0.2-1.6-1.6-4.4-2.8-6.5-4.3-8.4-12-15.3-20.6-19.1 0-0.2-0.5-0.4-0.7-0.6-8.5-3.6-18.7-4.6-28.5-2.3-9.9 2.4-19.2 8.1-25.8 16.3 0.3-1 2.8-2.9 2.9-3.7-2.9 3.1-6 7.2-8.1 11.6-2.2 4.4-3.4 8.9-3.9 12.2" fill="#a32a2a" fill-rule="nonzero" stroke="none" stroke-width="1" stroke-linecap="butt" stroke-linejoin="miter" stroke-miterlimit="10" stroke-dasharray="" stroke-dashoffset="0" font-family="none" font-weight="none" font-size="none" text-anchor="none" style="mix-blend-mode: normal" data-fill-palette-color="tertiary"></path></g><g transform="matrix(1,0,0,1,48.000000000000014,108.03259474490305)"><svg viewBox="0 0 223.99999999999997 143.9348105101939" height="143.9348105101939" width="223.99999999999997"><g><svg viewBox="0 0 224.00000000000003 143.93481051019393" height="143.9348105101939" width="223.99999999999997"><g transform="matrix(1,0,0,1,0,98.93431324515167)"><svg viewBox="0 0 224.00000000000003 45.00049726504227" height="45.00049726504227" width="224.00000000000003"><g id="textblocktransform"><svg viewBox="0 0 224.00000000000003 45.00049726504227" height="45.00049726504227" width="224.00000000000003" id="textblock"><g><svg viewBox="0 0 224.00000000000003 45.00049726504227" height="45.00049726504227" width="224.00000000000003"><g transform="matrix(1,0,0,1,0,0)"><svg width="224.00000000000003" viewBox="0.4 -39.65 201.07999999999998 40.4" height="45.00049726504227" data-palette-color="#ae1c1c"><path d="M0.4-34.55L21.95-34.55 21.25-29.55 14.15-29.55 14.15 0 7.8 0 7.8-29.55 0.4-29.55 0.4-34.55ZM36.5-27.1Q37.65-27.1 38.55-26.75L38.55-26.75 37.55-20.85Q36.55-21.1 35.7-21.1L35.7-21.1Q33.8-21.1 32.7-19.45 31.6-17.8 31-14.55L31-14.55 31 0 24.85 0 24.85-26.45 30.2-26.45 30.65-21.85Q32.5-27.1 36.5-27.1L36.5-27.1ZM58.3-6.4Q58.3-5.1 58.65-4.48 59-3.85 59.8-3.45L59.8-3.45 58.55 0.65Q56.5 0.4 55.27-0.45 54.05-1.3 53.45-3.05L53.45-3.05Q51.15 0.75 47 0.75L47 0.75Q43.7 0.75 41.75-1.48 39.8-3.7 39.8-7.4L39.8-7.4Q39.8-11.7 42.47-13.95 45.15-16.2 50.25-16.2L50.25-16.2 52.3-16.2 52.3-18.05Q52.3-20.55 51.42-21.58 50.55-22.6 48.59-22.6L48.59-22.6Q46.25-22.6 42.75-21.3L42.75-21.3 41.34-25.3Q43.34-26.2 45.5-26.68 47.65-27.15 49.59-27.15L49.59-27.15Q58.3-27.15 58.3-18.35L58.3-18.35 58.3-6.4ZM48.65-3.7Q51.05-3.7 52.3-7L52.3-7 52.3-12.55 50.84-12.55Q48.3-12.55 47.12-11.4 45.95-10.25 45.95-7.85L45.95-7.85Q45.95-5.8 46.65-4.75 47.34-3.7 48.65-3.7L48.65-3.7ZM64.09-26.45L70.24-26.45 70.24 0 64.09 0 64.09-26.45ZM67.14-39.65Q68.79-39.65 69.82-38.6 70.84-37.55 70.84-35.9L70.84-35.9Q70.84-34.3 69.82-33.25 68.79-32.2 67.14-32.2L67.14-32.2Q65.49-32.2 64.47-33.25 63.44-34.3 63.44-35.9L63.44-35.9Q63.44-37.55 64.47-38.6 65.49-39.65 67.14-39.65L67.14-39.65ZM92.84-6.4Q92.84-5.1 93.19-4.48 93.54-3.85 94.34-3.45L94.34-3.45 93.09 0.65Q91.04 0.4 89.81-0.45 88.59-1.3 87.99-3.05L87.99-3.05Q85.69 0.75 81.54 0.75L81.54 0.75Q78.24 0.75 76.29-1.48 74.34-3.7 74.34-7.4L74.34-7.4Q74.34-11.7 77.02-13.95 79.69-16.2 84.79-16.2L84.79-16.2 86.84-16.2 86.84-18.05Q86.84-20.55 85.97-21.58 85.09-22.6 83.14-22.6L83.14-22.6Q80.79-22.6 77.29-21.3L77.29-21.3 75.89-25.3Q77.89-26.2 80.04-26.68 82.19-27.15 84.14-27.15L84.14-27.15Q92.84-27.15 92.84-18.35L92.84-18.35 92.84-6.4ZM83.19-3.7Q85.59-3.7 86.84-7L86.84-7 86.84-12.55 85.39-12.55Q82.84-12.55 81.67-11.4 80.49-10.25 80.49-7.85L80.49-7.85Q80.49-5.8 81.19-4.75 81.89-3.7 83.19-3.7L83.19-3.7ZM110.99-27.15Q113.84-27.15 115.49-25.1 117.14-23.05 117.14-19.6L117.14-19.6 117.14 0 110.99 0 110.99-18.9Q110.99-20.8 110.46-21.63 109.94-22.45 108.94-22.45L108.94-22.45Q106.84-22.45 104.79-18.5L104.79-18.5 104.79 0 98.64 0 98.64-26.45 103.99-26.45 104.44-23Q105.79-25.1 107.31-26.13 108.84-27.15 110.99-27.15L110.99-27.15ZM130.74-34.55Q136.99-34.55 140.26-31.78 143.54-29 143.54-23.6L143.54-23.6Q143.54-17.85 140.31-15 137.09-12.15 131.19-12.15L131.19-12.15 129.19-12.15 129.19 0 122.84 0 122.84-34.55 130.74-34.55ZM130.84-16.9Q134.09-16.9 135.53-18.4 136.99-19.9 136.99-23.55L136.99-23.55Q136.99-26.85 135.53-28.35 134.09-29.85 130.89-29.85L130.89-29.85 129.19-29.85 129.19-16.9 130.84-16.9ZM158.78-27.1Q159.93-27.1 160.83-26.75L160.83-26.75 159.83-20.85Q158.83-21.1 157.98-21.1L157.98-21.1Q156.08-21.1 154.98-19.45 153.88-17.8 153.28-14.55L153.28-14.55 153.28 0 147.13 0 147.13-26.45 152.48-26.45 152.93-21.85Q154.78-27.1 158.78-27.1L158.78-27.1ZM173.08-27.15Q178.08-27.15 180.86-23.65 183.63-20.15 183.63-13.25L183.63-13.25Q183.63-6.65 180.83-2.95 178.03 0.75 173.08 0.75L173.08 0.75Q168.13 0.75 165.33-2.88 162.53-6.5 162.53-13.25L162.53-13.25Q162.53-19.95 165.33-23.55 168.13-27.15 173.08-27.15L173.08-27.15ZM173.08-22.5Q170.93-22.5 169.93-20.38 168.93-18.25 168.93-13.25L168.93-13.25Q168.93-8.2 169.93-6.08 170.93-3.95 173.08-3.95L173.08-3.95Q175.23-3.95 176.23-6.08 177.23-8.2 177.23-13.25L177.23-13.25Q177.23-18.3 176.23-20.4 175.23-22.5 173.08-22.5L173.08-22.5ZM199.33-5L201.48-1.2Q199.03 0.75 195.73 0.75L195.73 0.75Q192.28 0.75 190.48-1.23 188.68-3.2 188.68-6.6L188.68-6.6 188.68-22 185.58-22 185.58-26.45 188.68-26.45 188.68-32.3 194.83-33.05 194.83-26.45 199.83-26.45 199.23-22 194.83-22 194.83-6.6Q194.83-4.2 196.88-4.2L196.88-4.2Q197.53-4.2 198.03-4.38 198.53-4.55 199.33-5L199.33-5Z" opacity="1" transform="matrix(1,0,0,1,0,0)" fill="#ae1c1c" class="wordmark-text-0" data-fill-palette-color="primary" id="text-0"></path></svg></g></svg></g></svg></g></svg></g><g transform="matrix(1,0,0,1,70.29302958070956,0)"><svg viewBox="0 0 83.41394083858091 88.31077585280956" height="88.31077585280956" width="83.41394083858091"><g><svg xmlns="http://www.w3.org/2000/svg" xmlns:xlink="http://www.w3.org/1999/xlink" version="1.1" x="0" y="0" viewBox="10.105 7.763048824877042 79.79081274756506 84.47495117512295" enable-background="new 0 0 100 100" xml:space="preserve" height="88.31077585280956" width="83.41394083858091" class="icon-icon-0" data-fill-palette-color="accent" id="icon-0"><path d="M48.258 33.511C51.368 33.511 54.731 33.755 58.253 34.237 70.75 35.948 70.118 50.18 70.24 60.391 70.259 61.988 70.278 63.438 70.342 64.731L74.788 64.268C74.735 63.114 74.72 61.789 74.704 60.335 74.54 46.77 73.905 31.875 58.858 29.816 55.216 29.316 51.695 29.065 48.387 29.065 37.049 29.065 29.147 33.047 24.897 38.365L28.747 40.718C32.256 36.783 38.845 33.511 48.258 33.511" fill="#ae1c1c" data-fill-palette-color="accent"></path><path d="M76.755 12.413C49.286-1.745 10.105 20.944 10.105 20.944 20.608 25.804 25.322 31.229 27.072 33.74 31.746 29.615 39.652 27.315 49.555 27.315 52.863 27.315 56.385 27.567 60.025 28.065 75.074 30.125 76.508 44.772 76.671 58.337 76.682 59.286 76.693 60.171 76.714 60.999 81.787 61.566 88.296 64.73 88.296 64.73S86.349 62.888 82.951 54.076C79.554 45.261 104.225 26.572 76.755 12.413" fill="#ae1c1c" data-fill-palette-color="accent"></path><path d="M26.693 49.015C24.65 50.423 23.311 53.718 22.741 55.38 20.992 48.357 21.324 46.005 24.578 40.502L29.601 43.573 30.64 41.874C32.367 39.051 38.055 36.033 48.842 36.033 51.781 36.033 54.977 36.267 58.336 36.726 63.23 37.396 65.677 40.443 66.874 45.976 46.05 40.961 28.391 48.371 27.867 48.596 27.396 48.67 26.992 48.808 26.693 49.015" fill="#ae1c1c" data-fill-palette-color="accent"></path><path d="M80.144 83.945C80.138 83.946 79.401 84.037 78.193 84.037H78.192C75.305 84.037 69.679 83.521 64.443 80.073 60.992 77.801 59.449 75.272 58.089 73.042 56.518 70.467 55.277 68.435 51.764 68.228A4 4 0 0 0 51.512 68.22C45.609 68.22 44.742 80.438 44.644 82.301 35.811 84.587 21.476 90.709 17.955 92.238 24.031 81.119 25.192 65.544 25.299 63.885L32.761 58.697C36.018 55.982 36.122 53.811 35.636 52.467 34.81 50.186 31.813 48.853 29.535 48.581 34.188 46.906 49.481 42.298 67.001 46.604 67.641 49.908 67.876 54.036 67.937 59.022 67.965 61.449 67.991 63.545 68.184 65.394L68.389 67.374 73.485 66.843C75.228 74.428 83.279 80.612 84.438 81.469 84.138 83.543 80.194 83.939 80.144 83.945" fill="#ae1c1c" data-fill-palette-color="accent"></path></svg></g></svg></g><g></g></svg></g></svg></g></svg></g><defs></defs></svg><rect width="320" height="360" fill="none" stroke="none" visibility="hidden"></rect></g></svg></g></svg>